{"accessors":[{"bufferView":2,"componentType":5126,"count":651,"max":[0.012480000033974648,-0.064069002866745,1.64552903175354],"min":[-0.008098999969661236,-0.15292400121688843,1.183709979057312],"type":"VEC3"},{"bufferView":2,"byteOffset":7812,"componentType":5126,"count":651,"max":[0.9799574613571167,0.9997854828834534,0.9662551283836365],"min":[-0.9358279705047607,-0.9997541308403015,-0.9544379711151123],"type":"VEC3"},{"bufferView":3,"componentType":5126,"count":651,"max":[0.9999921321868896,0.8516416549682617,0.22017717361450195,1],"min":[0,-0.4902666509151459,-0.4676979184150696,-1],"type":"VEC4"},{"bufferView":1,"componentType":5126,"count":651,"max":[0.4503540098667145,0.5837820172309875],"min":[0.029527999460697174,0.028006000444293022],"type":"VEC2"},{"bufferView":0,"componentType":5125,"count":1680,"max":[650],"min":[0],"type":"SCALAR"},{"bufferView":2,"byteOffset":15624,"componentType":5126,"count":1623,"max":[0.06956099718809128,0.06065800040960312,1.7068090438842773],"min":[-0.06887300312519073,-0.08505699783563614,1.5838979482650757],"type":"VEC3"},{"bufferView":2,"byteOffset":35100,"componentType":5126,"count":1623,"max":[0.9982907772064209,0.9959891438484192,0.9952197670936584],"min":[-0.9996598958969116,-0.9995135068893433,-0.995327889919281],"type":"VEC3"},{"bufferView":3,"byteOffset":10416,"componentType":5126,"count":1623,"max":[0.9985378980636597,0.9577784538269043,0.7281232476234436,1],"min":[-0.9999186396598816,-0.9634289145469666,-0.7038556933403015,-1],"type":"VEC4"},{"bufferView":1,"byteOffset":5208,"componentType":5126,"count":1623,"max":[0.6016510128974915,0.6474469900131226],"min":[0.3412719964981079,0.5518450140953064],"type":"VEC2"},{"bufferView":0,"byteOffset":6720,"componentType":5125,"count":7320,"max":[1622],"min":[0],"type":"SCALAR"},{"bufferView":2,"byteOffset":54576,"componentType":5126,"count":1085,"max":[0.30804499983787537,-0.01164500042796135,1.215319037437439],"min":[0.20978300273418427,-0.1347389966249466,1.0966540575027466],"type":"VEC3"},{"bufferView":2,"byteOffset":67596,"componentType":5126,"count":1085,"max":[0.9999760985374451,0.9818662405014038,0.9048798680305481],"min":[-0.999974250793457,-0.9811134934425354,-0.9852051138877869],"type":"VEC3"},{"bufferView":3,"byteOffset":36384,"componentType":5126,"count":1085,"max":[0.9991631507873535,0.8530508875846863,0.6743332147598267,1],"min":[-0.9990436434745789,-0.9229781627655029,-0.5495535135269165,-1],"type":"VEC4"},{"bufferView":1,"byteOffset":18192,"componentType":5126,"count":1085,"max":[0.22715100646018982,0.5910410284996033],"min":[0.03576299920678139,0.5379760265350342],"type":"VEC2"},{"bufferView":0,"byteOffset":36000,"componentType":5125,"count":5496,"max":[1084],"min":[0],"type":"SCALAR"},{"bufferView":2,"byteOffset":80616,"componentType":5126,"count":1097,"max":[-0.22951599955558777,-0.0069969999603927135,1.2099820375442505],"min":[-0.3317599892616272,-0.13096900284290314,1.0920629501342773],"type":"VEC3"},{"bufferView":2,"byteOffset":93780,"componentType":5126,"count":1097,"max":[0.9978218674659729,0.9941814541816711,0.9057562351226807],"min":[-0.9978234767913818,-0.9934242367744446,-0.9982485175132751],"type":"VEC3"},{"bufferView":3,"byteOffset":53744,"componentType":5126,"count":1097,"max":[0.9964260458946228,0.9240399599075317,0.5295943021774292,1],"min":[-0.9898528456687927,-0.872281551361084,-0.7076932787895203,-1],"type":"VEC4"},{"bufferView":1,"byteOffset":26872,"componentType":5126,"count":1097,"max":[0.8755859732627869,0.5980370044708252],"min":[0.6841980218887329,0.5449709892272949],"type":"VEC2"},{"bufferView":0,"byteOffset":57984,"componentType":5125,"count":5568,"max":[1096],"min":[0],"type":"SCALAR"},{"bufferView":2,"byteOffset":106944,"componentType":5126,"count":1375,"max":[0.18465399742126465,0.09791000187397003,1.6639039516448975],"min":[-0.18882499635219574,0.00979399960488081,1.5630320310592651],"type":"VEC3"},{"bufferView":2,"byteOffset":123444,"componentType":5126,"count":1375,"max":[0.9875591397285461,0.9115587472915649,0.9634174704551697],"min":[-0.9862344861030579,-0.9967156648635864,-0.9634581208229065],"type":"VEC3"},{"bufferView":3,"byteOffset":71296,"componentType":5126,"count":1375,"max":[0,0.2716638147830963,0.5656406283378601,1],"min":[-0.9999986886978149,-0.242450550198555,-0.5273982882499695,-1],"type":"VEC4"},{"bufferView":1,"byteOffset":35648,"componentType":5126,"count":1375,"max":[0.5248619914054871,0.4989440143108368],"min":[0.3206140100955963,0.41951701045036316],"type":"VEC2"},{"bufferView":0,"byteOffset":80256,"componentType":5125,"count":6960,"max":[1374],"min":[0],"type":"SCALAR"},{"bufferView":2,"byteOffset":139944,"componentType":5126,"count":5186,"max":[0.1972229927778244,0.015742000192403793,1.653210997581482],"min":[-0.01672299951314926,-0.15986299514770508,1.057744026184082],"type":"VEC3"},{"bufferView":2,"byteOffset":202176,"componentType":5126,"count":5186,"max":[0.9961112141609192,0.9999374747276306,0.9970831274986267],"min":[-0.9999834895133972,-0.9999376535415649,-0.9990167617797852],"type":"VEC3"},{"bufferView":3,"byteOffset":93296,"componentType":5126,"count":5186,"max":[0.9999977946281433,0.9975313544273376,0.35274040699005127,1],"min":[-0.9680622816085815,-0.28760942816734314,-0.6989124417304993,-1],"type":"VEC4"},{"bufferView":1,"byteOffset":46648,"componentType":5126,"count":5186,"max":[0.2186959981918335,0.4308350086212158],"min":[0.06647399812936783,0.013124000281095505],"type":"VEC2"},{"bufferView":0,"byteOffset":108096,"componentType":5125,"count":28500,"max":[5185],"min":[0],"type":"SCALAR"},{"bufferView":2,"byteOffset":264408,"componentType":5126,"count":5205,"max":[0.024477999657392502,0.0167239997535944,1.6586819887161255],"min":[-0.1960970014333725,-0.15681099891662598,1.0559860467910767],"type":"VEC3"},{"bufferView":2,"byteOffset":326868,"componentType":5126,"count":5205,"max":[0.9998711347579956,0.9999866485595703,0.998894214630127],"min":[-0.9997380971908569,-0.9999868869781494,-0.9986640214920044],"type":"VEC3"},{"bufferView":3,"byteOffset":176272,"componentType":5126,"count":5205,"max":[0.9999709129333496,0.5861549377441406,0.5499172806739807,1],"min":[-0.40698426961898804,-0.9981247782707214,-0.2898443639278412,-1],"type":"VEC4"},{"bufferView":1,"byteOffset":88136,"componentType":5126,"count":5205,"max":[0.7806239724159241,0.43296000361442566],"min":[0.6218569874763489,0.014902999624609947],"type":"VEC2"},{"bufferView":0,"byteOffset":222096,"componentType":5125,"count":28572,"max":[5204],"min":[0],"type":"SCALAR"},{"bufferView":2,"byteOffset":389328,"componentType":5126,"count":5769,"max":[-0.1611340045928955,0.10270299762487411,1.610414981842041],"min":[-0.32951200008392334,-0.1308639943599701,1.092283010482788],"type":"VEC3"},{"bufferView":2,"byteOffset":458556,"componentType":5126,"count":5769,"max":[0.9999447464942932,0.9999529719352722,0.9808791279792786],"min":[-0.9999428987503052,-0.9999433755874634,-0.9961482286453247],"type":"VEC3"},{"bufferView":3,"byteOffset":259552,"componentType":5126,"count":5769,"max":[0.9973832368850708,0.9992775321006775,0.9239286184310913,1],"min":[-0.9911398887634277,-0.9961816072463989,-0.7504592537879944,-1],"type":"VEC4"},{"bufferView":1,"byteOffset":129776,"componentType":5126,"count":5769,"max":[0.9015309810638428,0.9737719893455505],"min":[0.6827470064163208,0.6223739981651306],"type":"VEC2"},{"bufferView":0,"byteOffset":336384,"componentType":5125,"count":32472,"max":[5768],"min":[0],"type":"SCALAR"},{"bufferView":2,"byteOffset":527784,"componentType":5126,"count":5807,"max":[0.3125860095024109,0.10369399935007095,1.612876057624817],"min":[0.15866799652576447,-0.13462400436401367,1.0968639850616455],"type":"VEC3"},{"bufferView":2,"byteOffset":597468,"componentType":5126,"count":5807,"max":[0.9999706149101257,0.999978244304657,0.9978893399238586],"min":[-0.999971330165863,-0.9998903870582581,-0.999568521976471],"type":"VEC3"},{"bufferView":3,"byteOffset":351856,"componentType":5126,"count":5807,"max":[0.9996980428695679,0.9977221488952637,0.8197003602981567,1],"min":[-0.9996536374092102,-0.997951865196228,-0.9116693735122681,-1],"type":"VEC4"},{"bufferView":1,"byteOffset":175928,"componentType":5126,"count":5807,"max":[0.22860200703144073,0.9667770266532898],"min":[0.00981799978762865,0.6153789758682251],"type":"VEC2"},{"bufferView":0,"byteOffset":466272,"componentType":5125,"count":32712,"max":[5806],"min":[0],"type":"SCALAR"},{"bufferView":2,"byteOffset":667152,"componentType":5126,"count":9773,"max":[0.16992899775505066,0.12662699818611145,1.5960710048675537],"min":[-0.170523002743721,-0.040437001734972,1.0481319427490234],"type":"VEC3"},{"bufferView":2,"byteOffset":784428,"componentType":5126,"count":9773,"max":[0.9999653697013855,0.9999776482582092,0.9971415400505066],"min":[-0.9999809861183167,-0.9999773502349854,-0.998612642288208],"type":"VEC3"},{"bufferView":3,"byteOffset":444768,"componentType":5126,"count":9773,"max":[0.8320087790489197,0.9997877478599548,0.6447286009788513,1],"min":[-0.9999995827674866,-0.9996265172958374,-0.633430540561676,-1],"type":"VEC4"},{"bufferView":1,"byteOffset":222384,"componentType":5126,"count":9773,"max":[0.5834699869155884,0.4018619954586029],"min":[0.2588939964771271,0.022109000012278557],"type":"VEC2"},{"bufferView":0,"byteOffset":597120,"componentType":5125,"count":56124,"max":[9772],"min":[0],"type":"SCALAR"}],"asset":{"extras":{"author":"eigenscene (https://sketchfab.com/illumecast)","license":"CC-BY-4.0 (http://creativecommons.org/licenses/by/4.0/)","source":"https://sketchfab.com/models/745d0d185b49405694ef4e16cf78e224","title":"Shirt"},"generator":"Sketchfab-3.20.7","version":"2.0"},"bufferViews":[{"buffer":0,"byteLength":821616,"byteOffset":0,"name":"floatBufferViews","target":34963},{"buffer":0,"byteLength":300568,"byteOffset":821616,"byteStride":8,"name":"floatBufferViews","target":34962},{"buffer":0,"byteLength":901704,"byteOffset":1122184,"byteStride":12,"name":"floatBufferViews","target":34962},{"buffer":0,"byteLength":601136,"byteOffset":2023888,"byteStride":16,"name":"floatBufferViews","target":34962}],"buffers":[{"byteLength":2625024,"uri":"a06b38b6978e42099d082c2eeac4ec26.bin"}],"images":[{"uri":"img/Shirt00_1Button_FRONT_baseColor.e090efdb.jpg"},{"uri":"img/Shirt00_1Material4782_baseColor.4a9f002b.png"}],"materials":[{"doubleSided":true,"emissiveFactor":[0,0,0],"name":"Shirt00_1Button_FRONT","pbrMetallicRoughness":{"baseColorFactor":[0.37,0.37,0.37,1],"baseColorTexture":{"index":0,"texCoord":0},"metallicFactor":0,"roughnessFactor":0.6}},{"doubleSided":true,"emissiveFactor":[0,0,0],"name":"Shirt00_1Material4782","pbrMetallicRoughness":{"baseColorFactor":[0.23,0.23,0.23,1],"baseColorTexture":{"index":1,"texCoord":0},"metallicFactor":0,"roughnessFactor":0.6}}],"meshes":[{"primitives":[{"attributes":{"NORMAL":1,"POSITION":0,"TANGENT":2,"TEXCOORD_0":3},"indices":4,"material":0,"mode":4}]},{"primitives":[{"attributes":{"NORMAL":6,"POSITION":5,"TANGENT":7,"TEXCOORD_0":8},"indices":9,"material":1,"mode":4}]},{"primitives":[{"attributes":{"NORMAL":11,"POSITION":10,"TANGENT":12,"TEXCOORD_0":13},"indices":14,"material":1,"mode":4}]},{"primitives":[{"attributes":{"NORMAL":16,"POSITION":15,"TANGENT":17,"TEXCOORD_0":18},"indices":19,"material":1,"mode":4}]},{"primitives":[{"attributes":{"NORMAL":21,"POSITION":20,"TANGENT":22,"TEXCOORD_0":23},"indices":24,"material":1,"mode":4}]},{"primitives":[{"attributes":{"NORMAL":26,"POSITION":25,"TANGENT":27,"TEXCOORD_0":28},"indices":29,"material":1,"mode":4}]},{"primitives":[{"attributes":{"NORMAL":31,"POSITION":30,"TANGENT":32,"TEXCOORD_0":33},"indices":34,"material":1,"mode":4}]},{"primitives":[{"attributes":{"NORMAL":36,"POSITION":35,"TANGENT":37,"TEXCOORD_0":38},"indices":39,"material":1,"mode":4}]},{"primitives":[{"attributes":{"NORMAL":41,"POSITION":40,"TANGENT":42,"TEXCOORD_0":43},"indices":44,"material":1,"mode":4}]},{"primitives":[{"attributes":{"NORMAL":46,"POSITION":45,"TANGENT":47,"TEXCOORD_0":48},"indices":49,"material":1,"mode":4}]}],"nodes":[{"children":[1],"name":"RootNode (gltf orientation matrix)","rotation":[-0.7071067811865475,0,0,0.7071067811865476]},{"children":[2],"name":"RootNode (model correction matrix)"},{"children":[3,4,5,6,7,8,9,10,11,12],"name":"Shirt01.obj.cleaner"},{"mesh":0,"name":""},{"mesh":1,"name":""},{"mesh":2,"name":""},{"mesh":3,"name":""},{"mesh":4,"name":""},{"mesh":5,"name":""},{"mesh":6,"name":""},{"mesh":7,"name":""},{"mesh":8,"name":""},{"mesh":9,"name":""}],"samplers":[{"magFilter":9729,"minFilter":9987,"wrapS":10497,"wrapT":10497}],"scene":0,"scenes":[{"name":"OSG_Scene","nodes":[0]}],"textures":[{"sampler":0,"source":0},{"sampler":0,"source":1}]}