<svg id="Component_58_1" data-name="Component 58 – 1" xmlns="http://www.w3.org/2000/svg" width="31.866" height="42.416" viewBox="0 0 31.866 42.416">
  <path id="Path_311" data-name="Path 311" d="M62.59,8.144,55.073.628A2.128,2.128,0,0,0,53.558,0H33.5a2.146,2.146,0,0,0-2.143,2.143v38.13A2.146,2.146,0,0,0,33.5,42.416H61.074a2.146,2.146,0,0,0,2.144-2.143V9.66A2.129,2.129,0,0,0,62.59,8.144Zm-7.73-5.73L60.8,8.357H55.462a.6.6,0,0,1-.6-.6V2.413Zm-21.364-1H53.446V7.756a2.018,2.018,0,0,0,2.015,2.016H61.8V25.418H32.766V2.143A.73.73,0,0,1,33.5,1.414ZM61.074,41H33.5a.73.73,0,0,1-.73-.73V26.833H61.8V40.273A.73.73,0,0,1,61.074,41Z" transform="translate(-31.352)" fill="#0a6b16"/>
  <path id="Path_312" data-name="Path 312" d="M157.366,184.792h-2.985a.707.707,0,0,1,0-1.414h2.985a.448.448,0,0,0,.447-.447v-1.6a.448.448,0,0,0-.447-.447h-1.831a1.863,1.863,0,0,1-1.861-1.861v-1.6a1.863,1.863,0,0,1,1.861-1.861h2.033a.707.707,0,1,1,0,1.414h-2.033a.448.448,0,0,0-.447.447v1.6a.448.448,0,0,0,.447.447h1.831a1.863,1.863,0,0,1,1.861,1.861v1.6A1.863,1.863,0,0,1,157.366,184.792Z" transform="translate(-133.091 -145.557)" fill="#0a6b16"/>
  <path id="Path_313" data-name="Path 313" d="M115.723,184.819H112.91a2.051,2.051,0,0,1-2.049-2.048v-6.512a.707.707,0,0,1,1.414,0v6.512a.635.635,0,0,0,.635.634h2.813a.707.707,0,0,1,0,1.414Z" transform="translate(-97.482 -145.555)" fill="#0a6b16"/>
  <path id="Path_314" data-name="Path 314" d="M68.97,180.168l1.895-3.582a.707.707,0,1,0-1.249-.661l-1.445,2.731-1.445-2.731a.707.707,0,1,0-1.249.661l1.895,3.582-1.895,3.582a.707.707,0,1,0,1.249.661l1.445-2.731,1.445,2.731a.707.707,0,1,0,1.249-.661Z" transform="translate(-59.666 -145.552)" fill="#0a6b16"/>
  <g id="Group_712" data-name="Group 712" transform="translate(-1284.806 -119.163)">
    <path id="Path_323" data-name="Path 323" d="M1299.363,131v10.041" transform="translate(1.301 -1.496)" fill="none" stroke="#0a6b16" stroke-linecap="round" stroke-width="1.5"/>
    <path id="Path_324" data-name="Path 324" d="M1302.457,136.152l3.513-3.469" transform="translate(-1.644 3.248)" fill="none" stroke="#0a6b16" stroke-linecap="round" stroke-width="1.5"/>
    <path id="Path_325" data-name="Path 325" d="M1305.97,136.152l-3.513-3.469" transform="translate(-5.307 3.391)" fill="none" stroke="#0a6b16" stroke-linecap="round" stroke-width="1.5"/>
  </g>
</svg>
