<svg id="Component_57_1" data-name="Component 57 – 1" xmlns="http://www.w3.org/2000/svg" width="32.358" height="43.072" viewBox="0 0 32.358 43.072">
  <path id="Path_315" data-name="Path 315" d="M63.072,8.27,55.44.637A2.161,2.161,0,0,0,53.9,0H33.529a2.179,2.179,0,0,0-2.177,2.177V40.9a2.179,2.179,0,0,0,2.177,2.177h28A2.179,2.179,0,0,0,63.71,40.9V9.809A2.162,2.162,0,0,0,63.072,8.27ZM55.223,2.451l6.035,6.036H55.834a.612.612,0,0,1-.611-.611V2.451ZM33.529,1.436H53.788v6.44a2.049,2.049,0,0,0,2.046,2.047h6.44V25.811H32.788V2.177A.741.741,0,0,1,33.529,1.436Zm28,40.2h-28a.741.741,0,0,1-.741-.741V27.247H62.274V40.9A.742.742,0,0,1,61.533,41.636Z" transform="translate(-31.352)" fill="#eb3a17"/>
  <path id="Path_316" data-name="Path 316" d="M70.723,181.79H67.878a.718.718,0,0,1-.718-.718v-4.716a.718.718,0,0,1,.718-.718h2.845a2.078,2.078,0,0,1,2.076,2.077v2A2.078,2.078,0,0,1,70.723,181.79ZM68.6,180.354h2.127a.641.641,0,0,0,.64-.641v-2a.642.642,0,0,0-.64-.641H68.6Z" transform="translate(-61.042 -145.627)" fill="#eb3a17"/>
  <path id="Path_317" data-name="Path 317" d="M67.878,207.9a.718.718,0,0,1-.718-.718v-3.229a.718.718,0,0,1,1.436,0v3.229A.718.718,0,0,1,67.878,207.9Z" transform="translate(-61.042 -168.512)" fill="#eb3a17"/>
  <path id="Path_318" data-name="Path 318" d="M70.723,175.638H67.878a.718.718,0,0,0-.718.718V184.3a.718.718,0,0,0,1.436,0V181.79h2.127a2.079,2.079,0,0,0,2.076-2.077v-2A2.078,2.078,0,0,0,70.723,175.638Zm.641,4.076a.642.642,0,0,1-.64.641H68.6v-3.281h2.127a.641.641,0,0,1,.64.641Z" transform="translate(-61.042 -145.627)" fill="#eb3a17"/>
  <path id="Path_319" data-name="Path 319" d="M114.97,175.638h-2.845a.718.718,0,0,0-.718.718V184.3a.718.718,0,0,0,1.436,0V181.79h2.127a2.079,2.079,0,0,0,2.076-2.077v-2A2.079,2.079,0,0,0,114.97,175.638Zm.64,4.076a.642.642,0,0,1-.64.641h-2.127v-3.281h2.127a.642.642,0,0,1,.64.641Z" transform="translate(-97.728 -145.627)" fill="#eb3a17"/>
  <path id="Path_320" data-name="Path 320" d="M156.754,175.551h-4.219a.718.718,0,0,0,0,1.436h1.392v7.257a.718.718,0,1,0,1.436,0v-7.257h1.392a.718.718,0,0,0,0-1.436Z" transform="translate(-131.233 -145.555)" fill="#eb3a17"/>
  <g id="Group_711" data-name="Group 711" transform="translate(-1284.56 -119.163)">
    <path id="Path_323" data-name="Path 323" d="M1299.363,131v10.041" transform="translate(1.301 -1.496)" fill="none" stroke="#eb3a17" stroke-linecap="round" stroke-width="1.5"/>
    <path id="Path_324" data-name="Path 324" d="M1302.457,136.152l3.513-3.469" transform="translate(-1.644 3.248)" fill="none" stroke="#eb3a17" stroke-linecap="round" stroke-width="1.5"/>
    <path id="Path_325" data-name="Path 325" d="M1305.97,136.152l-3.513-3.469" transform="translate(-5.307 3.391)" fill="none" stroke="#eb3a17" stroke-linecap="round" stroke-width="1.5"/>
  </g>
</svg>
